<?xml version="1.0" encoding="UTF-8" standalone="no"?>
<!DOCTYPE svg PUBLIC "-//W3C//DTD SVG 1.1//EN" "http://www.w3.org/Graphics/SVG/1.1/DTD/svg11.dtd">
<svg width="100%" height="100%" viewBox="0 0 257 257" version="1.1" xmlns="http://www.w3.org/2000/svg" xmlns:xlink="http://www.w3.org/1999/xlink" xml:space="preserve" style="fill-rule:evenodd;clip-rule:evenodd;stroke-linejoin:round;stroke-miterlimit:1.41421;">
    <g transform="matrix(1,0,0,1,-122.218,-121.456)">
        <path d="M122,122L121.743,253.206C122.963,332.716 240.503,381.006 248.411,378.117C255.825,381.355 376.252,339.269 378.033,250.333L378.302,121.936L122,122ZM293.184,287.233L207.175,287.233L207.175,311.125L293.184,311.125L293.184,287.233ZM233.131,160.917L266.153,161.12L261.812,198.132L296.299,182.991L307.058,214.466L270.088,221.44L294.617,249.022L267.659,269.495L248.774,235.984L230.268,269.21L202.822,249.334L228.369,221.616L192.484,214.29L202.93,182.149L237.133,197.711L233.131,160.917Z"/>
    </g>
</svg>
